# xmcd
#
# Track frame offsets: 
#        183
#        11385
#        20700
#        30875
#        42830
#        51620
#        65323
#        75520
#        86590
#        98055
#
# Disc length: 1430 seconds
#
# Revision: 3
# Processed by: cddbd v1.5.2PL0 Copyright (c) Steve Scherf et al.
# Submitted via: ExactAudioCopy v0.95b3
#
DISCID=6d05940a
DTITLE=Canned Heat - Rolling And Tumbling
DYEAR=2002
DGENRE=Blues
TTITLE0=Spoonful
TTITLE1=Big Road Blues
TTITLE2=Rolling And Tumbling
TTITLE3=Got My Mojo Working
TTITLE4=Pretty Thing
TTITLE5=Louise
TTITLE6=Dimples
TTITLE7=Can't Hold Out
TTITLE8=Straight Ahead
TTITLE9=Rolling And Tumbling (With Harmonica)
EXTD=
EXTT0=
EXTT1=
EXTT2=
EXTT3=
EXTT4=
EXTT5=
EXTT6=
EXTT7=
EXTT8=
EXTT9=
PLAYORDER=
